{
	"asset":{
		"generator":"Khronos glTF Blender I/O v4.5.47",
		"version":"2.0"
	},
	"scene":0,
	"scenes":[
		{
			"name":"Scene",
			"nodes":[
				0,
				1,
				2
			]
		}
	],
	"nodes":[
		{
			"mesh":0,
			"name":"Cylinder"
		},
		{
			"mesh":1,
			"name":"Cube",
			"translation":[
				-6.288004398345947,
				2.6826820373535156,
				2.6472585201263428
			]
		},
		{
			"mesh":2,
			"name":"Cube.001",
			"translation":[
				-6.288004398345947,
				2.6826820373535156,
				2.6472585201263428
			]
		}
	],
	"materials":[
		{
			"doubleSided":true,
			"name":"Walls",
			"pbrMetallicRoughness":{
				"baseColorFactor":[
					0.800000011920929,
					0.800000011920929,
					0.800000011920929,
					1
				],
				"metallicFactor":0,
				"roughnessFactor":0.5
			}
		},
		{
			"doubleSided":true,
			"name":"Ceiling",
			"pbrMetallicRoughness":{
				"baseColorFactor":[
					0.800000011920929,
					0.800000011920929,
					0.800000011920929,
					1
				],
				"metallicFactor":0,
				"roughnessFactor":0.5
			}
		},
		{
			"doubleSided":true,
			"name":"Floor",
			"pbrMetallicRoughness":{
				"baseColorFactor":[
					0.800000011920929,
					0.800000011920929,
					0.800000011920929,
					1
				],
				"metallicFactor":0,
				"roughnessFactor":0.5
			}
		},
		{
			"doubleSided":true,
			"name":"ElevatorWall",
			"pbrMetallicRoughness":{
				"baseColorFactor":[
					0.800000011920929,
					0.800000011920929,
					0.800000011920929,
					1
				],
				"metallicFactor":0,
				"roughnessFactor":0.5
			}
		},
		{
			"doubleSided":true,
			"name":"ElevatorFloor",
			"pbrMetallicRoughness":{
				"baseColorFactor":[
					0.800000011920929,
					0.800000011920929,
					0.800000011920929,
					1
				],
				"metallicFactor":0,
				"roughnessFactor":0.5
			}
		}
	],
	"meshes":[
		{
			"name":"Cylinder",
			"primitives":[
				{
					"attributes":{
						"POSITION":0,
						"NORMAL":1,
						"TEXCOORD_0":2
					},
					"indices":3,
					"material":0
				},
				{
					"attributes":{
						"POSITION":4,
						"NORMAL":5,
						"TEXCOORD_0":6
					},
					"indices":7,
					"material":1
				},
				{
					"attributes":{
						"POSITION":8,
						"NORMAL":9,
						"TEXCOORD_0":10
					},
					"indices":11,
					"material":2
				}
			]
		},
		{
			"name":"Cube",
			"primitives":[
				{
					"attributes":{
						"POSITION":12,
						"NORMAL":13,
						"TEXCOORD_0":14
					},
					"indices":15,
					"material":3
				},
				{
					"attributes":{
						"POSITION":16,
						"NORMAL":17,
						"TEXCOORD_0":18
					},
					"indices":19,
					"material":4
				}
			]
		},
		{
			"name":"Cube.003",
			"primitives":[
				{
					"attributes":{
						"POSITION":20,
						"NORMAL":21,
						"TEXCOORD_0":22
					},
					"indices":23,
					"material":3
				}
			]
		}
	],
	"accessors":[
		{
			"bufferView":0,
			"componentType":5126,
			"count":270,
			"max":[
				2.873229742050171,
				5.338148593902588,
				10.239999771118164
			],
			"min":[
				-3.6871330738067627,
				0.00040268898010253906,
				-10.239999771118164
			],
			"type":"VEC3"
		},
		{
			"bufferView":1,
			"componentType":5126,
			"count":270,
			"type":"VEC3"
		},
		{
			"bufferView":2,
			"componentType":5126,
			"count":270,
			"type":"VEC2"
		},
		{
			"bufferView":3,
			"componentType":5123,
			"count":432,
			"type":"SCALAR"
		},
		{
			"bufferView":4,
			"componentType":5126,
			"count":32,
			"max":[
				1.6570193767547607,
				5.338148593902588,
				10.239999771118164
			],
			"min":[
				-3.681215763092041,
				0.0004032544093206525,
				-10.239999771118164
			],
			"type":"VEC3"
		},
		{
			"bufferView":5,
			"componentType":5126,
			"count":32,
			"type":"VEC3"
		},
		{
			"bufferView":6,
			"componentType":5126,
			"count":32,
			"type":"VEC2"
		},
		{
			"bufferView":7,
			"componentType":5123,
			"count":90,
			"type":"SCALAR"
		},
		{
			"bufferView":8,
			"componentType":5126,
			"count":28,
			"max":[
				1.6570191383361816,
				0.00040340423583984375,
				10.239999771118164
			],
			"min":[
				-3.670429229736328,
				0.00040268898010253906,
				-10.239999771118164
			],
			"type":"VEC3"
		},
		{
			"bufferView":9,
			"componentType":5126,
			"count":28,
			"type":"VEC3"
		},
		{
			"bufferView":10,
			"componentType":5126,
			"count":28,
			"type":"VEC2"
		},
		{
			"bufferView":11,
			"componentType":5123,
			"count":84,
			"type":"SCALAR"
		},
		{
			"bufferView":12,
			"componentType":5126,
			"count":16,
			"max":[
				2.620774030685425,
				2.653744697570801,
				2.6572797298431396
			],
			"min":[
				-2.6792261600494385,
				-2.6992554664611816,
				-2.435002088546753
			],
			"type":"VEC3"
		},
		{
			"bufferView":13,
			"componentType":5126,
			"count":16,
			"type":"VEC3"
		},
		{
			"bufferView":14,
			"componentType":5126,
			"count":16,
			"type":"VEC2"
		},
		{
			"bufferView":15,
			"componentType":5123,
			"count":24,
			"type":"SCALAR"
		},
		{
			"bufferView":16,
			"componentType":5126,
			"count":4,
			"max":[
				2.620774030685425,
				-2.6992554664611816,
				2.6572797298431396
			],
			"min":[
				-2.6792261600494385,
				-2.6992554664611816,
				-2.435002088546753
			],
			"type":"VEC3"
		},
		{
			"bufferView":17,
			"componentType":5126,
			"count":4,
			"type":"VEC3"
		},
		{
			"bufferView":18,
			"componentType":5126,
			"count":4,
			"type":"VEC2"
		},
		{
			"bufferView":19,
			"componentType":5123,
			"count":6,
			"type":"SCALAR"
		},
		{
			"bufferView":20,
			"componentType":5126,
			"count":24,
			"max":[
				2.670773983001709,
				2.653744697570801,
				2.6572797298431396
			],
			"min":[
				2.620774030685425,
				-2.6992554664611816,
				-2.435002088546753
			],
			"type":"VEC3"
		},
		{
			"bufferView":21,
			"componentType":5126,
			"count":24,
			"type":"VEC3"
		},
		{
			"bufferView":22,
			"componentType":5126,
			"count":24,
			"type":"VEC2"
		},
		{
			"bufferView":23,
			"componentType":5123,
			"count":36,
			"type":"SCALAR"
		}
	],
	"bufferViews":[
		{
			"buffer":0,
			"byteLength":3240,
			"byteOffset":0,
			"target":34962
		},
		{
			"buffer":0,
			"byteLength":3240,
			"byteOffset":3240,
			"target":34962
		},
		{
			"buffer":0,
			"byteLength":2160,
			"byteOffset":6480,
			"target":34962
		},
		{
			"buffer":0,
			"byteLength":864,
			"byteOffset":8640,
			"target":34963
		},
		{
			"buffer":0,
			"byteLength":384,
			"byteOffset":9504,
			"target":34962
		},
		{
			"buffer":0,
			"byteLength":384,
			"byteOffset":9888,
			"target":34962
		},
		{
			"buffer":0,
			"byteLength":256,
			"byteOffset":10272,
			"target":34962
		},
		{
			"buffer":0,
			"byteLength":180,
			"byteOffset":10528,
			"target":34963
		},
		{
			"buffer":0,
			"byteLength":336,
			"byteOffset":10708,
			"target":34962
		},
		{
			"buffer":0,
			"byteLength":336,
			"byteOffset":11044,
			"target":34962
		},
		{
			"buffer":0,
			"byteLength":224,
			"byteOffset":11380,
			"target":34962
		},
		{
			"buffer":0,
			"byteLength":168,
			"byteOffset":11604,
			"target":34963
		},
		{
			"buffer":0,
			"byteLength":192,
			"byteOffset":11772,
			"target":34962
		},
		{
			"buffer":0,
			"byteLength":192,
			"byteOffset":11964,
			"target":34962
		},
		{
			"buffer":0,
			"byteLength":128,
			"byteOffset":12156,
			"target":34962
		},
		{
			"buffer":0,
			"byteLength":48,
			"byteOffset":12284,
			"target":34963
		},
		{
			"buffer":0,
			"byteLength":48,
			"byteOffset":12332,
			"target":34962
		},
		{
			"buffer":0,
			"byteLength":48,
			"byteOffset":12380,
			"target":34962
		},
		{
			"buffer":0,
			"byteLength":32,
			"byteOffset":12428,
			"target":34962
		},
		{
			"buffer":0,
			"byteLength":12,
			"byteOffset":12460,
			"target":34963
		},
		{
			"buffer":0,
			"byteLength":288,
			"byteOffset":12472,
			"target":34962
		},
		{
			"buffer":0,
			"byteLength":288,
			"byteOffset":12760,
			"target":34962
		},
		{
			"buffer":0,
			"byteLength":192,
			"byteOffset":13048,
			"target":34962
		},
		{
			"buffer":0,
			"byteLength":72,
			"byteOffset":13240,
			"target":34963
		}
	],
	"buffers":[
		{
			"byteLength":13312,
			"uri":"mt_room2_elevators.bin"
		}
	]
}
