{
	"asset":{
		"generator":"Khronos glTF Blender I/O v4.5.47",
		"version":"2.0"
	},
	"scene":0,
	"scenes":[
		{
			"name":"Scene",
			"nodes":[
				0
			]
		}
	],
	"nodes":[
		{
			"mesh":0,
			"name":"Cylinder"
		}
	],
	"materials":[
		{
			"doubleSided":true,
			"name":"Walls",
			"pbrMetallicRoughness":{
				"baseColorFactor":[
					0.800000011920929,
					0.800000011920929,
					0.800000011920929,
					1
				],
				"metallicFactor":0,
				"roughnessFactor":0.5
			}
		},
		{
			"doubleSided":true,
			"name":"Ceiling",
			"pbrMetallicRoughness":{
				"baseColorFactor":[
					0.800000011920929,
					0.800000011920929,
					0.800000011920929,
					1
				],
				"metallicFactor":0,
				"roughnessFactor":0.5
			}
		},
		{
			"doubleSided":true,
			"name":"Floor",
			"pbrMetallicRoughness":{
				"baseColorFactor":[
					0.800000011920929,
					0.800000011920929,
					0.800000011920929,
					1
				],
				"metallicFactor":0,
				"roughnessFactor":0.5
			}
		}
	],
	"meshes":[
		{
			"name":"Cylinder",
			"primitives":[
				{
					"attributes":{
						"POSITION":0,
						"NORMAL":1,
						"TEXCOORD_0":2
					},
					"indices":3,
					"material":0
				},
				{
					"attributes":{
						"POSITION":4,
						"NORMAL":5,
						"TEXCOORD_0":6
					},
					"indices":7,
					"material":1
				},
				{
					"attributes":{
						"POSITION":8,
						"NORMAL":9,
						"TEXCOORD_0":10
					},
					"indices":11,
					"material":2
				}
			]
		}
	],
	"accessors":[
		{
			"bufferView":0,
			"componentType":5126,
			"count":488,
			"max":[
				9.819637298583984,
				5.33814811706543,
				10.239999771118164
			],
			"min":[
				-2.8413946628570557,
				0.0004028379335068166,
				-10.239999771118164
			],
			"type":"VEC3"
		},
		{
			"bufferView":1,
			"componentType":5126,
			"count":488,
			"type":"VEC3"
		},
		{
			"bufferView":2,
			"componentType":5126,
			"count":488,
			"type":"VEC2"
		},
		{
			"bufferView":3,
			"componentType":5123,
			"count":828,
			"type":"SCALAR"
		},
		{
			"bufferView":4,
			"componentType":5126,
			"count":67,
			"max":[
				8.603426933288574,
				5.33814811706543,
				10.239999771118164
			],
			"min":[
				-1.6570191383361816,
				5.3381476402282715,
				-10.239999771118164
			],
			"type":"VEC3"
		},
		{
			"bufferView":5,
			"componentType":5126,
			"count":67,
			"type":"VEC3"
		},
		{
			"bufferView":6,
			"componentType":5126,
			"count":67,
			"type":"VEC2"
		},
		{
			"bufferView":7,
			"componentType":5123,
			"count":258,
			"type":"SCALAR"
		},
		{
			"bufferView":8,
			"componentType":5126,
			"count":67,
			"max":[
				8.603425979614258,
				0.00040340423583984375,
				10.239999771118164
			],
			"min":[
				-1.6570193767547607,
				0.0004028379335068166,
				-10.239999771118164
			],
			"type":"VEC3"
		},
		{
			"bufferView":9,
			"componentType":5126,
			"count":67,
			"type":"VEC3"
		},
		{
			"bufferView":10,
			"componentType":5126,
			"count":67,
			"type":"VEC2"
		},
		{
			"bufferView":11,
			"componentType":5123,
			"count":258,
			"type":"SCALAR"
		}
	],
	"bufferViews":[
		{
			"buffer":0,
			"byteLength":5856,
			"byteOffset":0,
			"target":34962
		},
		{
			"buffer":0,
			"byteLength":5856,
			"byteOffset":5856,
			"target":34962
		},
		{
			"buffer":0,
			"byteLength":3904,
			"byteOffset":11712,
			"target":34962
		},
		{
			"buffer":0,
			"byteLength":1656,
			"byteOffset":15616,
			"target":34963
		},
		{
			"buffer":0,
			"byteLength":804,
			"byteOffset":17272,
			"target":34962
		},
		{
			"buffer":0,
			"byteLength":804,
			"byteOffset":18076,
			"target":34962
		},
		{
			"buffer":0,
			"byteLength":536,
			"byteOffset":18880,
			"target":34962
		},
		{
			"buffer":0,
			"byteLength":516,
			"byteOffset":19416,
			"target":34963
		},
		{
			"buffer":0,
			"byteLength":804,
			"byteOffset":19932,
			"target":34962
		},
		{
			"buffer":0,
			"byteLength":804,
			"byteOffset":20736,
			"target":34962
		},
		{
			"buffer":0,
			"byteLength":536,
			"byteOffset":21540,
			"target":34962
		},
		{
			"buffer":0,
			"byteLength":516,
			"byteOffset":22076,
			"target":34963
		}
	],
	"buffers":[
		{
			"byteLength":22592,
			"uri":"mt_room2_wc.bin"
		}
	]
}
