{
	"asset":{
		"generator":"Khronos glTF Blender I/O v4.5.47",
		"version":"2.0"
	},
	"scene":0,
	"scenes":[
		{
			"name":"Scene",
			"nodes":[
				0
			]
		}
	],
	"nodes":[
		{
			"mesh":0,
			"name":"Cylinder"
		}
	],
	"materials":[
		{
			"doubleSided":true,
			"name":"Walls",
			"pbrMetallicRoughness":{
				"baseColorFactor":[
					0.800000011920929,
					0.800000011920929,
					0.800000011920929,
					1
				],
				"metallicFactor":0,
				"roughnessFactor":0.5
			}
		},
		{
			"doubleSided":true,
			"name":"Ceiling",
			"pbrMetallicRoughness":{
				"baseColorFactor":[
					0.800000011920929,
					0.800000011920929,
					0.800000011920929,
					1
				],
				"metallicFactor":0,
				"roughnessFactor":0.5
			}
		},
		{
			"doubleSided":true,
			"name":"Floor",
			"pbrMetallicRoughness":{
				"baseColorFactor":[
					0.800000011920929,
					0.800000011920929,
					0.800000011920929,
					1
				],
				"metallicFactor":0,
				"roughnessFactor":0.5
			}
		}
	],
	"meshes":[
		{
			"name":"Cylinder",
			"primitives":[
				{
					"attributes":{
						"POSITION":0,
						"NORMAL":1,
						"TEXCOORD_0":2
					},
					"indices":3,
					"material":0
				},
				{
					"attributes":{
						"POSITION":4,
						"NORMAL":5,
						"TEXCOORD_0":6
					},
					"indices":7,
					"material":1
				},
				{
					"attributes":{
						"POSITION":8,
						"NORMAL":9,
						"TEXCOORD_0":10
					},
					"indices":11,
					"material":2
				}
			]
		}
	],
	"accessors":[
		{
			"bufferView":0,
			"componentType":5126,
			"count":320,
			"max":[
				8.161338806152344,
				5.33814811706543,
				10.239999771118164
			],
			"min":[
				-5.030117988586426,
				0.00040268898010253906,
				-10.239999771118164
			],
			"type":"VEC3"
		},
		{
			"bufferView":1,
			"componentType":5126,
			"count":320,
			"type":"VEC3"
		},
		{
			"bufferView":2,
			"componentType":5126,
			"count":320,
			"type":"VEC2"
		},
		{
			"bufferView":3,
			"componentType":5123,
			"count":540,
			"type":"SCALAR"
		},
		{
			"bufferView":4,
			"componentType":5126,
			"count":60,
			"max":[
				6.945128440856934,
				5.33814811706543,
				10.239999771118164
			],
			"min":[
				-3.845742702484131,
				5.338147163391113,
				-10.239999771118164
			],
			"type":"VEC3"
		},
		{
			"bufferView":5,
			"componentType":5126,
			"count":60,
			"type":"VEC3"
		},
		{
			"bufferView":6,
			"componentType":5126,
			"count":60,
			"type":"VEC2"
		},
		{
			"bufferView":7,
			"componentType":5123,
			"count":162,
			"type":"SCALAR"
		},
		{
			"bufferView":8,
			"componentType":5126,
			"count":61,
			"max":[
				6.945128440856934,
				0.0004034290323033929,
				10.239999771118164
			],
			"min":[
				-3.845742702484131,
				0.00040268898010253906,
				-10.239999771118164
			],
			"type":"VEC3"
		},
		{
			"bufferView":9,
			"componentType":5126,
			"count":61,
			"type":"VEC3"
		},
		{
			"bufferView":10,
			"componentType":5126,
			"count":61,
			"type":"VEC2"
		},
		{
			"bufferView":11,
			"componentType":5123,
			"count":162,
			"type":"SCALAR"
		}
	],
	"bufferViews":[
		{
			"buffer":0,
			"byteLength":3840,
			"byteOffset":0,
			"target":34962
		},
		{
			"buffer":0,
			"byteLength":3840,
			"byteOffset":3840,
			"target":34962
		},
		{
			"buffer":0,
			"byteLength":2560,
			"byteOffset":7680,
			"target":34962
		},
		{
			"buffer":0,
			"byteLength":1080,
			"byteOffset":10240,
			"target":34963
		},
		{
			"buffer":0,
			"byteLength":720,
			"byteOffset":11320,
			"target":34962
		},
		{
			"buffer":0,
			"byteLength":720,
			"byteOffset":12040,
			"target":34962
		},
		{
			"buffer":0,
			"byteLength":480,
			"byteOffset":12760,
			"target":34962
		},
		{
			"buffer":0,
			"byteLength":324,
			"byteOffset":13240,
			"target":34963
		},
		{
			"buffer":0,
			"byteLength":732,
			"byteOffset":13564,
			"target":34962
		},
		{
			"buffer":0,
			"byteLength":732,
			"byteOffset":14296,
			"target":34962
		},
		{
			"buffer":0,
			"byteLength":488,
			"byteOffset":15028,
			"target":34962
		},
		{
			"buffer":0,
			"byteLength":324,
			"byteOffset":15516,
			"target":34963
		}
	],
	"buffers":[
		{
			"byteLength":15840,
			"uri":"mt_room2_middle.bin"
		}
	]
}
