{
	"asset":{
		"generator":"Khronos glTF Blender I/O v5.1.19",
		"version":"2.0"
	},
	"scene":0,
	"scenes":[
		{
			"name":"Scene",
			"nodes":[
				0,
				1,
				2
			]
		}
	],
	"nodes":[
		{
			"mesh":0,
			"name":"Cylinder.001",
			"rotation":[
				0.70710688829422,
				0,
				0,
				0.7071066498756409
			],
			"translation":[
				0,
				1.2833600044250488,
				0
			]
		},
		{
			"mesh":1,
			"name":"Cylinder",
			"rotation":[
				0,
				0,
				-0.7071068286895752,
				0.7071067094802856
			],
			"translation":[
				2.6846888065338135,
				2.9658055305480957,
				5.239129543304443
			]
		},
		{
			"mesh":2,
			"name":"Plane",
			"rotation":[
				0.70710688829422,
				0,
				0,
				0.7071066498756409
			],
			"translation":[
				2.7100000381469727,
				1.7631092071533203,
				5.265949249267578
			]
		}
	],
	"materials":[
		{
			"name":"Walls",
			"normalTexture":{
				"index":0
			},
			"pbrMetallicRoughness":{
				"baseColorTexture":{
					"index":1
				},
				"metallicFactor":0,
				"metallicRoughnessTexture":{
					"index":2
				}
			}
		},
		{
			"name":"Floor",
			"normalTexture":{
				"index":3
			},
			"pbrMetallicRoughness":{
				"baseColorTexture":{
					"index":4
				},
				"metallicFactor":0,
				"metallicRoughnessTexture":{
					"index":5
				}
			}
		},
		{
			"name":"TunnelWall",
			"normalTexture":{
				"index":6
			},
			"pbrMetallicRoughness":{
				"baseColorTexture":{
					"index":7
				},
				"metallicRoughnessTexture":{
					"index":8
				}
			}
		},
		{
			"name":"RoomWalls",
			"normalTexture":{
				"index":9
			},
			"pbrMetallicRoughness":{
				"baseColorTexture":{
					"index":10
				},
				"metallicFactor":0,
				"metallicRoughnessTexture":{
					"index":11
				}
			}
		},
		{
			"name":"RoomFloor",
			"normalTexture":{
				"index":12
			},
			"pbrMetallicRoughness":{
				"baseColorTexture":{
					"index":13
				},
				"metallicFactor":0,
				"roughnessFactor":0.5
			}
		},
		{
			"doubleSided":true,
			"name":"Material.001",
			"pbrMetallicRoughness":{
				"baseColorFactor":[
					0.3504566252231598,
					0.3504566252231598,
					0.3504566252231598,
					1
				],
				"roughnessFactor":0.41200000047683716
			}
		},
		{
			"doubleSided":true,
			"name":"Material.002",
			"normalTexture":{
				"index":14
			},
			"pbrMetallicRoughness":{
				"baseColorTexture":{
					"index":15
				},
				"metallicFactor":0,
				"metallicRoughnessTexture":{
					"index":16
				}
			}
		}
	],
	"meshes":[
		{
			"name":"Cylinder.001",
			"primitives":[
				{
					"attributes":{
						"POSITION":0,
						"NORMAL":1,
						"TEXCOORD_0":2
					},
					"indices":3,
					"material":0
				},
				{
					"attributes":{
						"POSITION":4,
						"NORMAL":5,
						"TEXCOORD_0":6
					},
					"indices":7,
					"material":1
				},
				{
					"attributes":{
						"POSITION":8,
						"NORMAL":9,
						"TEXCOORD_0":10
					},
					"indices":11,
					"material":2
				},
				{
					"attributes":{
						"POSITION":12,
						"NORMAL":13,
						"TEXCOORD_0":14
					},
					"indices":15,
					"material":3
				},
				{
					"attributes":{
						"POSITION":16,
						"NORMAL":17,
						"TEXCOORD_0":18
					},
					"indices":19,
					"material":4
				}
			]
		},
		{
			"name":"Cylinder.002",
			"primitives":[
				{
					"attributes":{
						"POSITION":20,
						"NORMAL":21,
						"TEXCOORD_0":22
					},
					"indices":23,
					"material":5
				}
			]
		},
		{
			"name":"Plane",
			"primitives":[
				{
					"attributes":{
						"POSITION":24,
						"NORMAL":25,
						"TEXCOORD_0":26
					},
					"indices":27,
					"material":6
				}
			]
		}
	],
	"textures":[
		{
			"sampler":0,
			"source":0
		},
		{
			"sampler":0,
			"source":1
		},
		{
			"sampler":0,
			"source":2
		},
		{
			"sampler":0,
			"source":3
		},
		{
			"sampler":0,
			"source":4
		},
		{
			"sampler":0,
			"source":5
		},
		{
			"sampler":0,
			"source":6
		},
		{
			"sampler":0,
			"source":7
		},
		{
			"sampler":0,
			"source":8
		},
		{
			"sampler":0,
			"source":9
		},
		{
			"sampler":0,
			"source":10
		},
		{
			"sampler":0,
			"source":11
		},
		{
			"sampler":0,
			"source":0
		},
		{
			"sampler":0,
			"source":1
		},
		{
			"sampler":0,
			"source":12
		},
		{
			"sampler":0,
			"source":13
		},
		{
			"sampler":0,
			"source":14
		}
	],
	"images":[
		{
			"mimeType":"image/png",
			"name":"Concrete042A_2K-PNG_NormalGL",
			"uri":"Concrete042A_2K-PNG_NormalGL.png"
		},
		{
			"mimeType":"image/png",
			"name":"Concrete042A_2K-PNG_Color",
			"uri":"Concrete042A_2K-PNG_Color.png"
		},
		{
			"mimeType":"image/png",
			"name":"Concrete042A_2K-PNG_Roughness",
			"uri":"Concrete042A_2K-PNG_Roughness.png"
		},
		{
			"mimeType":"image/png",
			"name":"MetalWalkway011_2K-PNG_NormalGL",
			"uri":"MetalWalkway011_2K-PNG_NormalGL.png"
		},
		{
			"mimeType":"image/png",
			"name":"MetalWalkway011_2K-PNG_Color",
			"uri":"MetalWalkway011_2K-PNG_Color.png"
		},
		{
			"mimeType":"image/png",
			"name":"MetalWalkway011_2K-PNG_Roughness",
			"uri":"MetalWalkway011_2K-PNG_Roughness.png"
		},
		{
			"mimeType":"image/png",
			"name":"CorrugatedSteel005_1K-PNG_NormalGL",
			"uri":"CorrugatedSteel005_1K-PNG_NormalGL.png"
		},
		{
			"mimeType":"image/png",
			"name":"CorrugatedSteel005_2K-PNG_Color",
			"uri":"CorrugatedSteel005_2K-PNG_Color.png"
		},
		{
			"mimeType":"image/png",
			"name":"CorrugatedSteel005_2K-PNG_Metalness-CorrugatedSteel005_2K-PNG_Roughness",
			"uri":"CorrugatedSteel005_2K-PNG_Metalness-CorrugatedSteel005_2K-PNG_Roughness.png"
		},
		{
			"mimeType":"image/png",
			"name":"Wallpaper002A_2K-PNG_NormalGL",
			"uri":"Wallpaper002A_2K-PNG_NormalGL.png"
		},
		{
			"mimeType":"image/png",
			"name":"Wallpaper002A_2K-PNG_Color",
			"uri":"Wallpaper002A_2K-PNG_Color.png"
		},
		{
			"mimeType":"image/png",
			"name":"Wallpaper002A_2K-PNG_Roughness",
			"uri":"Wallpaper002A_2K-PNG_Roughness.png"
		},
		{
			"mimeType":"image/png",
			"name":"fabric_199_Normal-1K",
			"uri":"fabric_199_Normal-1K.png"
		},
		{
			"mimeType":"image/png",
			"name":"fabric_199_Albedo-1K",
			"uri":"fabric_199_Albedo-1K.png"
		},
		{
			"mimeType":"image/png",
			"name":"fabric_199_Roughness-1K",
			"uri":"fabric_199_Roughness-1K.png"
		}
	],
	"accessors":[
		{
			"bufferView":0,
			"componentType":5126,
			"count":374,
			"max":[
				9.558090209960938,
				9.309321403503418,
				2.5356736183166504
			],
			"min":[
				-6.899348735809326,
				-8.920001983642578,
				-2.830000162124634
			],
			"type":"VEC3"
		},
		{
			"bufferView":1,
			"componentType":5126,
			"count":374,
			"type":"VEC3"
		},
		{
			"bufferView":2,
			"componentType":5126,
			"count":374,
			"type":"VEC2"
		},
		{
			"bufferView":3,
			"componentType":5123,
			"count":780,
			"type":"SCALAR"
		},
		{
			"bufferView":4,
			"componentType":5126,
			"count":17,
			"max":[
				6.150957107543945,
				10.239999771118164,
				2.5356738567352295
			],
			"min":[
				-6.899348735809326,
				-8.920001029968262,
				2.5280916690826416
			],
			"type":"VEC3"
		},
		{
			"bufferView":5,
			"componentType":5126,
			"count":17,
			"type":"VEC3"
		},
		{
			"bufferView":6,
			"componentType":5126,
			"count":17,
			"type":"VEC2"
		},
		{
			"bufferView":7,
			"componentType":5123,
			"count":51,
			"type":"SCALAR"
		},
		{
			"bufferView":8,
			"componentType":5126,
			"count":66,
			"max":[
				2.8299999237060547,
				10.239999771118164,
				2.5356738567352295
			],
			"min":[
				-2.8299999237060547,
				9.309321403503418,
				-2.830000162124634
			],
			"type":"VEC3"
		},
		{
			"bufferView":9,
			"componentType":5126,
			"count":66,
			"type":"VEC3"
		},
		{
			"bufferView":10,
			"componentType":5126,
			"count":66,
			"type":"VEC2"
		},
		{
			"bufferView":11,
			"componentType":5123,
			"count":168,
			"type":"SCALAR"
		},
		{
			"bufferView":12,
			"componentType":5126,
			"count":48,
			"max":[
				9.558090209960938,
				5.207187175750732,
				2.5280921459198
			],
			"min":[
				-0.8719234466552734,
				-6.153318881988525,
				-2.753389835357666
			],
			"type":"VEC3"
		},
		{
			"bufferView":13,
			"componentType":5126,
			"count":48,
			"type":"VEC3"
		},
		{
			"bufferView":14,
			"componentType":5126,
			"count":48,
			"type":"VEC2"
		},
		{
			"bufferView":15,
			"componentType":5123,
			"count":102,
			"type":"SCALAR"
		},
		{
			"bufferView":16,
			"componentType":5126,
			"count":6,
			"max":[
				9.558090209960938,
				5.207187175750732,
				2.5280921459198
			],
			"min":[
				-0.8719234466552734,
				-6.153318881988525,
				2.5280916690826416
			],
			"type":"VEC3"
		},
		{
			"bufferView":17,
			"componentType":5126,
			"count":6,
			"type":"VEC3"
		},
		{
			"bufferView":18,
			"componentType":5126,
			"count":6,
			"type":"VEC2"
		},
		{
			"bufferView":19,
			"componentType":5123,
			"count":12,
			"type":"SCALAR"
		},
		{
			"bufferView":20,
			"componentType":5126,
			"count":76,
			"max":[
				0.10000006854534149,
				2.1783502101898193,
				0.09238799661397934
			],
			"min":[
				-0.10000006854534149,
				-2.1783502101898193,
				-0.09238799661397934
			],
			"type":"VEC3"
		},
		{
			"bufferView":21,
			"componentType":5126,
			"count":76,
			"type":"VEC3"
		},
		{
			"bufferView":22,
			"componentType":5126,
			"count":76,
			"type":"VEC2"
		},
		{
			"bufferView":23,
			"componentType":5123,
			"count":180,
			"type":"SCALAR"
		},
		{
			"bufferView":24,
			"componentType":5126,
			"count":331,
			"max":[
				2.057891845703125,
				0.060048580169677734,
				1.6550852060317993
			],
			"min":[
				-2.1107707023620605,
				0.02211761474609375,
				-1.145005464553833
			],
			"type":"VEC3"
		},
		{
			"bufferView":25,
			"componentType":5126,
			"count":331,
			"type":"VEC3"
		},
		{
			"bufferView":26,
			"componentType":5126,
			"count":331,
			"type":"VEC2"
		},
		{
			"bufferView":27,
			"componentType":5123,
			"count":486,
			"type":"SCALAR"
		}
	],
	"bufferViews":[
		{
			"buffer":0,
			"byteLength":4488,
			"byteOffset":0,
			"target":34962
		},
		{
			"buffer":0,
			"byteLength":4488,
			"byteOffset":4488,
			"target":34962
		},
		{
			"buffer":0,
			"byteLength":2992,
			"byteOffset":8976,
			"target":34962
		},
		{
			"buffer":0,
			"byteLength":1560,
			"byteOffset":11968,
			"target":34963
		},
		{
			"buffer":0,
			"byteLength":204,
			"byteOffset":13528,
			"target":34962
		},
		{
			"buffer":0,
			"byteLength":204,
			"byteOffset":13732,
			"target":34962
		},
		{
			"buffer":0,
			"byteLength":136,
			"byteOffset":13936,
			"target":34962
		},
		{
			"buffer":0,
			"byteLength":102,
			"byteOffset":14072,
			"target":34963
		},
		{
			"buffer":0,
			"byteLength":792,
			"byteOffset":14176,
			"target":34962
		},
		{
			"buffer":0,
			"byteLength":792,
			"byteOffset":14968,
			"target":34962
		},
		{
			"buffer":0,
			"byteLength":528,
			"byteOffset":15760,
			"target":34962
		},
		{
			"buffer":0,
			"byteLength":336,
			"byteOffset":16288,
			"target":34963
		},
		{
			"buffer":0,
			"byteLength":576,
			"byteOffset":16624,
			"target":34962
		},
		{
			"buffer":0,
			"byteLength":576,
			"byteOffset":17200,
			"target":34962
		},
		{
			"buffer":0,
			"byteLength":384,
			"byteOffset":17776,
			"target":34962
		},
		{
			"buffer":0,
			"byteLength":204,
			"byteOffset":18160,
			"target":34963
		},
		{
			"buffer":0,
			"byteLength":72,
			"byteOffset":18364,
			"target":34962
		},
		{
			"buffer":0,
			"byteLength":72,
			"byteOffset":18436,
			"target":34962
		},
		{
			"buffer":0,
			"byteLength":48,
			"byteOffset":18508,
			"target":34962
		},
		{
			"buffer":0,
			"byteLength":24,
			"byteOffset":18556,
			"target":34963
		},
		{
			"buffer":0,
			"byteLength":912,
			"byteOffset":18580,
			"target":34962
		},
		{
			"buffer":0,
			"byteLength":912,
			"byteOffset":19492,
			"target":34962
		},
		{
			"buffer":0,
			"byteLength":608,
			"byteOffset":20404,
			"target":34962
		},
		{
			"buffer":0,
			"byteLength":360,
			"byteOffset":21012,
			"target":34963
		},
		{
			"buffer":0,
			"byteLength":3972,
			"byteOffset":21372,
			"target":34962
		},
		{
			"buffer":0,
			"byteLength":3972,
			"byteOffset":25344,
			"target":34962
		},
		{
			"buffer":0,
			"byteLength":2648,
			"byteOffset":29316,
			"target":34962
		},
		{
			"buffer":0,
			"byteLength":972,
			"byteOffset":31964,
			"target":34963
		}
	],
	"samplers":[
		{
			"magFilter":9729,
			"minFilter":9987
		}
	],
	"buffers":[
		{
			"byteLength":32936,
			"uri":"mt_cont1_080.bin"
		}
	]
}
