{
	"asset":{
		"generator":"Khronos glTF Blender I/O v3.6.27",
		"version":"2.0"
	},
	"scene":0,
	"scenes":[
		{
			"name":"Scene",
			"nodes":[
				0,
				1,
				2,
				3,
				4,
				5
			]
		}
	],
	"nodes":[
		{
			"mesh":0,
			"name":"DoorPath.004",
			"rotation":[
				0,
				-1,
				0,
				4.371138828673793e-08
			]
		},
		{
			"mesh":1,
			"name":"Floor.001"
		},
		{
			"mesh":2,
			"name":"DoorPath.001"
		},
		{
			"mesh":3,
			"name":"LCZWallNeoCB2.002",
			"rotation":[
				0,
				-1,
				0,
				4.371138828673793e-08
			],
			"translation":[
				-4.666193008422852,
				0,
				0
			]
		},
		{
			"mesh":4,
			"name":"Ceiling.001",
			"translation":[
				0,
				-0.39491450786590576,
				0
			]
		},
		{
			"mesh":5,
			"name":"Plane",
			"rotation":[
				0,
				0,
				0.7071068286895752,
				0.7071068286895752
			],
			"translation":[
				7.92733097076416,
				3.4325900077819824,
				-0.06503748893737793
			]
		}
	],
	"materials":[
		{
			"doubleSided":true,
			"name":"Background.006",
			"normalTexture":{
				"index":0
			},
			"pbrMetallicRoughness":{
				"baseColorFactor":[
					0.800000011920929,
					0.800000011920929,
					0.800000011920929,
					1
				],
				"metallicFactor":0,
				"metallicRoughnessTexture":{
					"index":1
				}
			}
		},
		{
			"doubleSided":true,
			"name":"Material.013",
			"normalTexture":{
				"index":2
			},
			"pbrMetallicRoughness":{
				"baseColorTexture":{
					"index":3
				},
				"metallicFactor":0,
				"metallicRoughnessTexture":{
					"index":4
				}
			}
		},
		{
			"doubleSided":true,
			"name":"Glow.004",
			"pbrMetallicRoughness":{
				"baseColorFactor":[
					0,
					0,
					0,
					1
				],
				"metallicFactor":0,
				"roughnessFactor":0.5
			}
		},
		{
			"doubleSided":true,
			"name":"Foreground.006",
			"normalTexture":{
				"index":5
			},
			"pbrMetallicRoughness":{
				"baseColorTexture":{
					"index":6
				},
				"metallicRoughnessTexture":{
					"index":7
				}
			}
		},
		{
			"doubleSided":true,
			"name":"Foreground.005",
			"normalTexture":{
				"index":8
			},
			"pbrMetallicRoughness":{
				"baseColorTexture":{
					"index":9
				},
				"metallicRoughnessTexture":{
					"index":10
				}
			}
		},
		{
			"doubleSided":true,
			"name":"Background.005",
			"normalTexture":{
				"index":11
			},
			"pbrMetallicRoughness":{
				"baseColorFactor":[
					0.800000011920929,
					0.800000011920929,
					0.800000011920929,
					1
				],
				"metallicFactor":0,
				"metallicRoughnessTexture":{
					"index":12
				}
			}
		},
		{
			"doubleSided":true,
			"name":"Material.001",
			"pbrMetallicRoughness":{
				"baseColorTexture":{
					"index":13
				},
				"metallicFactor":0,
				"roughnessFactor":0.5
			}
		},
		{
			"doubleSided":true,
			"name":"Material",
			"normalTexture":{
				"index":14
			},
			"pbrMetallicRoughness":{
				"baseColorTexture":{
					"index":15
				},
				"metallicFactor":0,
				"metallicRoughnessTexture":{
					"index":16
				}
			}
		}
	],
	"meshes":[
		{
			"name":"Plane.010",
			"primitives":[
				{
					"attributes":{
						"POSITION":0,
						"NORMAL":1,
						"TEXCOORD_0":2
					},
					"indices":3,
					"material":0
				}
			]
		},
		{
			"name":"Plane.008",
			"primitives":[
				{
					"attributes":{
						"POSITION":4,
						"NORMAL":5,
						"TEXCOORD_0":6
					},
					"indices":7,
					"material":1
				}
			]
		},
		{
			"name":"Plane.001",
			"primitives":[
				{
					"attributes":{
						"POSITION":8,
						"NORMAL":9,
						"TEXCOORD_0":10
					},
					"indices":3,
					"material":0
				}
			]
		},
		{
			"name":"Plane.006",
			"primitives":[
				{
					"attributes":{
						"POSITION":11,
						"NORMAL":12,
						"TEXCOORD_0":13
					},
					"indices":14,
					"material":2
				},
				{
					"attributes":{
						"POSITION":15,
						"NORMAL":16,
						"TEXCOORD_0":17
					},
					"indices":18,
					"material":3
				},
				{
					"attributes":{
						"POSITION":19,
						"NORMAL":20,
						"TEXCOORD_0":21
					},
					"indices":22,
					"material":0
				},
				{
					"attributes":{
						"POSITION":23,
						"NORMAL":24,
						"TEXCOORD_0":25
					},
					"indices":14,
					"material":2
				},
				{
					"attributes":{
						"POSITION":26,
						"NORMAL":27,
						"TEXCOORD_0":28
					},
					"indices":18,
					"material":4
				},
				{
					"attributes":{
						"POSITION":29,
						"NORMAL":30,
						"TEXCOORD_0":31
					},
					"indices":22,
					"material":5
				},
				{
					"attributes":{
						"POSITION":32,
						"NORMAL":33,
						"TEXCOORD_0":34
					},
					"indices":14,
					"material":2
				},
				{
					"attributes":{
						"POSITION":35,
						"NORMAL":36,
						"TEXCOORD_0":37
					},
					"indices":18,
					"material":3
				},
				{
					"attributes":{
						"POSITION":38,
						"NORMAL":39,
						"TEXCOORD_0":40
					},
					"indices":41,
					"material":0
				}
			]
		},
		{
			"name":"Plane.002",
			"primitives":[
				{
					"attributes":{
						"POSITION":42,
						"NORMAL":43,
						"TEXCOORD_0":44
					},
					"indices":45,
					"material":6
				}
			]
		},
		{
			"name":"Plane",
			"primitives":[
				{
					"attributes":{
						"POSITION":46,
						"NORMAL":47,
						"TEXCOORD_0":48
					},
					"indices":7,
					"material":7
				}
			]
		}
	],
	"textures":[
		{
			"sampler":0,
			"source":0
		},
		{
			"sampler":0,
			"source":1
		},
		{
			"sampler":0,
			"source":2
		},
		{
			"sampler":0,
			"source":3
		},
		{
			"sampler":0,
			"source":4
		},
		{
			"sampler":0,
			"source":5
		},
		{
			"sampler":0,
			"source":6
		},
		{
			"sampler":0,
			"source":7
		},
		{
			"sampler":0,
			"source":5
		},
		{
			"sampler":0,
			"source":6
		},
		{
			"sampler":0,
			"source":7
		},
		{
			"sampler":0,
			"source":0
		},
		{
			"sampler":0,
			"source":1
		},
		{
			"sampler":0,
			"source":8
		},
		{
			"sampler":0,
			"source":9
		},
		{
			"sampler":0,
			"source":10
		},
		{
			"sampler":0,
			"source":11
		}
	],
	"images":[
		{
			"mimeType":"image/png",
			"name":"beige_wall_001_nor_gl_2k",
			"uri":"beige_wall_001_nor_gl_2k.png"
		},
		{
			"mimeType":"image/png",
			"name":"beige_wall_001_rough_2k",
			"uri":"beige_wall_001_rough_2k.png"
		},
		{
			"mimeType":"image/png",
			"name":"Tiles107_2K_NormalGL",
			"uri":"Tiles107_2K_NormalGL.png"
		},
		{
			"mimeType":"image/png",
			"name":"Tiles107_2K_Color",
			"uri":"Tiles107_2K_Color.png"
		},
		{
			"mimeType":"image/png",
			"name":"Tiles107_2K_Roughness",
			"uri":"Tiles107_2K_Roughness.png"
		},
		{
			"mimeType":"image/png",
			"name":"SheetMetal001_2K-PNG_NormalGL",
			"uri":"SheetMetal001_2K-PNG_NormalGL.png"
		},
		{
			"mimeType":"image/png",
			"name":"SheetMetal001_2K-PNG_Color",
			"uri":"SheetMetal001_2K-PNG_Color.png"
		},
		{
			"mimeType":"image/png",
			"name":"SheetMetal001_2K-PNG_Metalness-SheetMetal001_2K-PNG_Roughness",
			"uri":"SheetMetal001_2K-PNG_Metalness-SheetMetal001_2K-PNG_Roughness.png"
		},
		{
			"mimeType":"image/png",
			"name":"sky",
			"uri":"sky.png"
		},
		{
			"mimeType":"image/png",
			"name":"Tiles082_2K-PNG_NormalGL",
			"uri":"Tiles082_2K-PNG_NormalGL.png"
		},
		{
			"mimeType":"image/png",
			"name":"Tiles082_2K-PNG_Color",
			"uri":"Tiles082_2K-PNG_Color.png"
		},
		{
			"mimeType":"image/png",
			"name":"Tiles082_2K-PNG_Roughness",
			"uri":"Tiles082_2K-PNG_Roughness.png"
		}
	],
	"accessors":[
		{
			"bufferView":0,
			"componentType":5126,
			"count":57,
			"max":[
				8.00000286102295,
				6.996889114379883,
				10.238296508789062
			],
			"min":[
				-7.999997615814209,
				-0.0031108856201171875,
				9.9354829788208
			],
			"type":"VEC3"
		},
		{
			"bufferView":1,
			"componentType":5126,
			"count":57,
			"type":"VEC3"
		},
		{
			"bufferView":2,
			"componentType":5126,
			"count":57,
			"type":"VEC2"
		},
		{
			"bufferView":3,
			"componentType":5123,
			"count":129,
			"type":"SCALAR"
		},
		{
			"bufferView":4,
			"componentType":5126,
			"count":4,
			"max":[
				10.238296508789062,
				3.755558282136917e-07,
				10.238296508789062
			],
			"min":[
				-10.238295555114746,
				3.755558282136917e-07,
				-10.238296508789062
			],
			"type":"VEC3"
		},
		{
			"bufferView":5,
			"componentType":5126,
			"count":4,
			"type":"VEC3"
		},
		{
			"bufferView":6,
			"componentType":5126,
			"count":4,
			"type":"VEC2"
		},
		{
			"bufferView":7,
			"componentType":5123,
			"count":6,
			"type":"SCALAR"
		},
		{
			"bufferView":8,
			"componentType":5126,
			"count":57,
			"max":[
				8.00000286102295,
				6.996889114379883,
				10.238296508789062
			],
			"min":[
				-7.999997615814209,
				-0.0031108856201171875,
				9.9354829788208
			],
			"type":"VEC3"
		},
		{
			"bufferView":9,
			"componentType":5126,
			"count":57,
			"type":"VEC3"
		},
		{
			"bufferView":10,
			"componentType":5126,
			"count":57,
			"type":"VEC2"
		},
		{
			"bufferView":11,
			"componentType":5126,
			"count":8,
			"max":[
				3.265799045562744,
				6.610196113586426,
				-6.495987415313721
			],
			"min":[
				3.0861263275146484,
				-0.10641400516033173,
				-7.913471698760986
			],
			"type":"VEC3"
		},
		{
			"bufferView":12,
			"componentType":5126,
			"count":8,
			"type":"VEC3"
		},
		{
			"bufferView":13,
			"componentType":5126,
			"count":8,
			"type":"VEC2"
		},
		{
			"bufferView":14,
			"componentType":5123,
			"count":12,
			"type":"SCALAR"
		},
		{
			"bufferView":15,
			"componentType":5126,
			"count":4,
			"max":[
				3.265799045562744,
				6.610196113586426,
				-6.571379661560059
			],
			"min":[
				3.265798807144165,
				-0.10641399770975113,
				-7.851383686065674
			],
			"type":"VEC3"
		},
		{
			"bufferView":16,
			"componentType":5126,
			"count":4,
			"type":"VEC3"
		},
		{
			"bufferView":17,
			"componentType":5126,
			"count":4,
			"type":"VEC2"
		},
		{
			"bufferView":18,
			"componentType":5123,
			"count":6,
			"type":"SCALAR"
		},
		{
			"bufferView":19,
			"componentType":5126,
			"count":10,
			"max":[
				3.0861263275146484,
				6.610196113586426,
				-2.78707218170166
			],
			"min":[
				3.0861260890960693,
				-0.10641400516033173,
				-10.046891212463379
			],
			"type":"VEC3"
		},
		{
			"bufferView":20,
			"componentType":5126,
			"count":10,
			"type":"VEC3"
		},
		{
			"bufferView":21,
			"componentType":5126,
			"count":10,
			"type":"VEC2"
		},
		{
			"bufferView":22,
			"componentType":5123,
			"count":18,
			"type":"SCALAR"
		},
		{
			"bufferView":23,
			"componentType":5126,
			"count":8,
			"max":[
				3.265798807144165,
				6.610196113586426,
				0.763831615447998
			],
			"min":[
				3.0861260890960693,
				-0.10641400516033173,
				-0.6536526679992676
			],
			"type":"VEC3"
		},
		{
			"bufferView":24,
			"componentType":5126,
			"count":8,
			"type":"VEC3"
		},
		{
			"bufferView":25,
			"componentType":5126,
			"count":8,
			"type":"VEC2"
		},
		{
			"bufferView":26,
			"componentType":5126,
			"count":4,
			"max":[
				3.265798807144165,
				6.610196113586426,
				0.6884393692016602
			],
			"min":[
				3.265798568725586,
				-0.10641399770975113,
				-0.5915646553039551
			],
			"type":"VEC3"
		},
		{
			"bufferView":27,
			"componentType":5126,
			"count":4,
			"type":"VEC3"
		},
		{
			"bufferView":28,
			"componentType":5126,
			"count":4,
			"type":"VEC2"
		},
		{
			"bufferView":29,
			"componentType":5126,
			"count":10,
			"max":[
				3.0861260890960693,
				6.610196113586426,
				4.078685760498047
			],
			"min":[
				3.0861258506774902,
				-0.10641400516033173,
				-2.78707218170166
			],
			"type":"VEC3"
		},
		{
			"bufferView":30,
			"componentType":5126,
			"count":10,
			"type":"VEC3"
		},
		{
			"bufferView":31,
			"componentType":5126,
			"count":10,
			"type":"VEC2"
		},
		{
			"bufferView":32,
			"componentType":5126,
			"count":8,
			"max":[
				3.265798568725586,
				6.610196113586426,
				7.629590034484863
			],
			"min":[
				3.0861258506774902,
				-0.10641400516033173,
				6.212105751037598
			],
			"type":"VEC3"
		},
		{
			"bufferView":33,
			"componentType":5126,
			"count":8,
			"type":"VEC3"
		},
		{
			"bufferView":34,
			"componentType":5126,
			"count":8,
			"type":"VEC2"
		},
		{
			"bufferView":35,
			"componentType":5126,
			"count":4,
			"max":[
				3.265798568725586,
				6.610196113586426,
				7.554197311401367
			],
			"min":[
				3.265798330307007,
				-0.10641399770975113,
				6.274192810058594
			],
			"type":"VEC3"
		},
		{
			"bufferView":36,
			"componentType":5126,
			"count":4,
			"type":"VEC3"
		},
		{
			"bufferView":37,
			"componentType":5126,
			"count":4,
			"type":"VEC2"
		},
		{
			"bufferView":38,
			"componentType":5126,
			"count":8,
			"max":[
				3.0861258506774902,
				6.610196113586426,
				10.136270523071289
			],
			"min":[
				3.086125612258911,
				-0.10641400516033173,
				4.078685760498047
			],
			"type":"VEC3"
		},
		{
			"bufferView":39,
			"componentType":5126,
			"count":8,
			"type":"VEC3"
		},
		{
			"bufferView":40,
			"componentType":5126,
			"count":8,
			"type":"VEC2"
		},
		{
			"bufferView":41,
			"componentType":5123,
			"count":12,
			"type":"SCALAR"
		},
		{
			"bufferView":42,
			"componentType":5126,
			"count":4,
			"max":[
				10,
				6.99613094329834,
				10
			],
			"min":[
				-10,
				6.99613094329834,
				-10
			],
			"type":"VEC3"
		},
		{
			"bufferView":43,
			"componentType":5126,
			"count":4,
			"type":"VEC3"
		},
		{
			"bufferView":44,
			"componentType":5126,
			"count":4,
			"type":"VEC2"
		},
		{
			"bufferView":45,
			"componentType":5123,
			"count":6,
			"type":"SCALAR"
		},
		{
			"bufferView":46,
			"componentType":5126,
			"count":4,
			"max":[
				3.3859424591064453,
				1.1268424060517646e-07,
				10.104976654052734
			],
			"min":[
				-3.5779149532318115,
				-1.0429285879354211e-07,
				-10.104976654052734
			],
			"type":"VEC3"
		},
		{
			"bufferView":47,
			"componentType":5126,
			"count":4,
			"type":"VEC3"
		},
		{
			"bufferView":48,
			"componentType":5126,
			"count":4,
			"type":"VEC2"
		}
	],
	"bufferViews":[
		{
			"buffer":0,
			"byteLength":684,
			"byteOffset":0,
			"target":34962
		},
		{
			"buffer":0,
			"byteLength":684,
			"byteOffset":684,
			"target":34962
		},
		{
			"buffer":0,
			"byteLength":456,
			"byteOffset":1368,
			"target":34962
		},
		{
			"buffer":0,
			"byteLength":258,
			"byteOffset":1824,
			"target":34963
		},
		{
			"buffer":0,
			"byteLength":48,
			"byteOffset":2084,
			"target":34962
		},
		{
			"buffer":0,
			"byteLength":48,
			"byteOffset":2132,
			"target":34962
		},
		{
			"buffer":0,
			"byteLength":32,
			"byteOffset":2180,
			"target":34962
		},
		{
			"buffer":0,
			"byteLength":12,
			"byteOffset":2212,
			"target":34963
		},
		{
			"buffer":0,
			"byteLength":684,
			"byteOffset":2224,
			"target":34962
		},
		{
			"buffer":0,
			"byteLength":684,
			"byteOffset":2908,
			"target":34962
		},
		{
			"buffer":0,
			"byteLength":456,
			"byteOffset":3592,
			"target":34962
		},
		{
			"buffer":0,
			"byteLength":96,
			"byteOffset":4048,
			"target":34962
		},
		{
			"buffer":0,
			"byteLength":96,
			"byteOffset":4144,
			"target":34962
		},
		{
			"buffer":0,
			"byteLength":64,
			"byteOffset":4240,
			"target":34962
		},
		{
			"buffer":0,
			"byteLength":24,
			"byteOffset":4304,
			"target":34963
		},
		{
			"buffer":0,
			"byteLength":48,
			"byteOffset":4328,
			"target":34962
		},
		{
			"buffer":0,
			"byteLength":48,
			"byteOffset":4376,
			"target":34962
		},
		{
			"buffer":0,
			"byteLength":32,
			"byteOffset":4424,
			"target":34962
		},
		{
			"buffer":0,
			"byteLength":12,
			"byteOffset":4456,
			"target":34963
		},
		{
			"buffer":0,
			"byteLength":120,
			"byteOffset":4468,
			"target":34962
		},
		{
			"buffer":0,
			"byteLength":120,
			"byteOffset":4588,
			"target":34962
		},
		{
			"buffer":0,
			"byteLength":80,
			"byteOffset":4708,
			"target":34962
		},
		{
			"buffer":0,
			"byteLength":36,
			"byteOffset":4788,
			"target":34963
		},
		{
			"buffer":0,
			"byteLength":96,
			"byteOffset":4824,
			"target":34962
		},
		{
			"buffer":0,
			"byteLength":96,
			"byteOffset":4920,
			"target":34962
		},
		{
			"buffer":0,
			"byteLength":64,
			"byteOffset":5016,
			"target":34962
		},
		{
			"buffer":0,
			"byteLength":48,
			"byteOffset":5080,
			"target":34962
		},
		{
			"buffer":0,
			"byteLength":48,
			"byteOffset":5128,
			"target":34962
		},
		{
			"buffer":0,
			"byteLength":32,
			"byteOffset":5176,
			"target":34962
		},
		{
			"buffer":0,
			"byteLength":120,
			"byteOffset":5208,
			"target":34962
		},
		{
			"buffer":0,
			"byteLength":120,
			"byteOffset":5328,
			"target":34962
		},
		{
			"buffer":0,
			"byteLength":80,
			"byteOffset":5448,
			"target":34962
		},
		{
			"buffer":0,
			"byteLength":96,
			"byteOffset":5528,
			"target":34962
		},
		{
			"buffer":0,
			"byteLength":96,
			"byteOffset":5624,
			"target":34962
		},
		{
			"buffer":0,
			"byteLength":64,
			"byteOffset":5720,
			"target":34962
		},
		{
			"buffer":0,
			"byteLength":48,
			"byteOffset":5784,
			"target":34962
		},
		{
			"buffer":0,
			"byteLength":48,
			"byteOffset":5832,
			"target":34962
		},
		{
			"buffer":0,
			"byteLength":32,
			"byteOffset":5880,
			"target":34962
		},
		{
			"buffer":0,
			"byteLength":96,
			"byteOffset":5912,
			"target":34962
		},
		{
			"buffer":0,
			"byteLength":96,
			"byteOffset":6008,
			"target":34962
		},
		{
			"buffer":0,
			"byteLength":64,
			"byteOffset":6104,
			"target":34962
		},
		{
			"buffer":0,
			"byteLength":24,
			"byteOffset":6168,
			"target":34963
		},
		{
			"buffer":0,
			"byteLength":48,
			"byteOffset":6192,
			"target":34962
		},
		{
			"buffer":0,
			"byteLength":48,
			"byteOffset":6240,
			"target":34962
		},
		{
			"buffer":0,
			"byteLength":32,
			"byteOffset":6288,
			"target":34962
		},
		{
			"buffer":0,
			"byteLength":12,
			"byteOffset":6320,
			"target":34963
		},
		{
			"buffer":0,
			"byteLength":48,
			"byteOffset":6332,
			"target":34962
		},
		{
			"buffer":0,
			"byteLength":48,
			"byteOffset":6380,
			"target":34962
		},
		{
			"buffer":0,
			"byteLength":32,
			"byteOffset":6428,
			"target":34962
		}
	],
	"samplers":[
		{
			"magFilter":9729,
			"minFilter":9987
		}
	],
	"buffers":[
		{
			"byteLength":6460,
			"uri":"LC_room2_restroom.bin"
		}
	]
}
